<svg width="920.3064" height="93.279045" viewBox="0 0 920.3064 93.279045" version="1.1" id="svg5" xml:space="preserve"
  xmlns="http://www.w3.org/2000/svg" xmlns:svg="http://www.w3.org/2000/svg">
  <path style="stroke-width:0.48"
    d="m 43.501498,88.38419 -1.31811,-1.375809 1.644983,-1.744191 1.644983,-1.74419 4.263324,-0.0064 c 3.83388,-0.0058 15.957888,-0.858998 24.183452,-1.70185 l 3.120134,-0.319713 1.110106,0.89891 c 1.207564,0.977827 1.871625,4.021133 1.3398,6.140107 L 79.181712,89.76 H 62.000659 44.819607 Z M 57.64201,78.647462 C 43.031196,77.683939 42.72,77.608661 42.72,75.037757 v -1.644691 l 2.04,-0.925992 2.04,-0.925992 16.144018,-0.01056 16.144017,-0.01056 0.289426,1.08 c 0.583368,2.176824 0.300465,4.553169 -0.692299,5.815267 L 77.690323,79.68 74.485162,79.613414 C 72.722323,79.57679 65.142902,79.142112 57.64201,78.647462 Z M 24.548446,66.308448 23.52,65.28 V 60.314395 55.34879 l 0.964041,-0.872448 0.964041,-0.872443 11.395959,0.564514 c 14.556634,0.72108 33.821209,0.710899 40.915959,-0.02165 7.71851,-0.796925 13.102176,-0.784699 14.086229,0.03197 L 92.64,54.837509 v 5.245718 5.245719 l -1.8,0.753566 -1.8,0.753566 L 70.8,66.285547 C 53.16601,65.753314 50.213899,65.807395 30.668446,67.020773 l -5.091555,0.31608 -1.028445,-1.028443 z M 43.501498,47.58419 42.183388,46.20838 43.771694,44.53788 45.36,42.867379 52.968029,42.55986 c 4.184414,-0.169135 11.243078,-0.650104 15.685915,-1.068818 l 8.077891,-0.7613 1.017058,0.544314 c 1.631577,0.873194 2.520984,4.63024 1.639752,6.926685 L 79.09729,48.96 H 61.958448 44.819607 Z M 70.32,38.570556 C 69.528,38.484861 63.280296,38.082585 56.436211,37.676609 43.073192,36.883944 42.72,36.795395 42.72,34.237758 v -1.644694 l 2.04,-0.92599 2.04,-0.92599 16.144018,-0.01054 16.144017,-0.01054 0.289426,1.08 c 0.583368,2.176825 0.300465,4.55317 -0.692299,5.815268 L 77.690323,38.88 74.725162,38.803182 C 73.094323,38.760933 71.112,38.65625 70.32,38.570556 Z"
    id="division" />
  <path style="stroke-width:0.48"
    d="m 132.48,103.1811 v -3.378905 l 4.85073,-5.861097 c 8.9291,-10.78897 16.92345,-19.566524 18.08651,-19.858431 1.12432,-0.282192 6.76219,1.625242 8.44859,2.858367 l 0.8114,0.593308 -2.40647,1.835194 c -5.65492,4.312502 -12.85765,13.11503 -18.61572,22.750464 l -2.65332,4.44 H 136.74086 132.48 Z m 84.45888,-0.1011 c -5.9596,-10.114157 -13.02349,-18.878894 -18.71103,-23.21627 -2.92594,-2.231352 -2.92659,-2.13794 0.0259,-3.744903 6.37303,-3.468638 6.21071,-3.566563 18.88577,11.393304 L 227.52,99.763762 v 3.398118 3.39812 h -4.26529 -4.2653 z M 176.832,89.088 c -3.34658,-3.346579 0.87904,-9.982426 4.94401,-7.763986 4.65589,2.540933 5.09274,4.657244 1.54089,7.464826 -3.0187,2.386138 -4.3371,2.446958 -6.4849,0.29916 z M 146.67961,70.883251 145.44,69.643637 V 64.821816 60 l 1.02494,-1.024944 1.02495,-1.024944 3.41505,0.282139 c 1.87828,0.155175 9.82305,0.544008 17.65505,0.864077 l 14.23998,0.581938 10.00002,-0.570087 C 198.3,58.794634 204.204,58.328851 205.92,58.073107 c 3.58674,-0.534552 6.93533,-0.189206 7.94378,0.819245 l 0.69622,0.696221 v 4.994649 4.994645 l -1.1688,0.765831 -1.16881,0.76583 -22.23119,-0.331339 c -20.75446,-0.309327 -29.67982,-0.07002 -39.59159,1.06151 l -2.48038,0.283162 z M 152.24698,50.28 C 148.82875,46.743759 132.48,26.788646 132.48,26.152626 c 0,-0.648678 2.74145,-3.283157 4.19015,-4.026646 2.51727,-1.291892 4.06495,0.04279 10.43907,9.002377 6.47249,9.097858 9.5725,12.799984 13.19897,15.762625 1.82877,1.494007 3.20109,2.916924 3.0496,3.162031 -0.5461,0.883617 -5.23583,2.737713 -6.93634,2.742297 l -1.73856,0.0048 -2.43591,-2.52 z m 18.73041,-17.14968 0.14261,-17.269679 1.29043,-1.289844 1.29043,-1.289843 1.64242,1.252731 c 1.91446,1.460228 2.2331,2.753983 2.27236,9.226315 0.0144,2.376 0.22443,6.588 0.4667,9.36 0.24227,2.772 0.58716,7.424264 0.76642,10.338365 l 0.32594,5.298365 -0.82164,0.821635 L 177.53143,50.4 h -3.34833 -3.34833 z m 11.2169,16.515394 c -0.50511,-0.5051 -0.75429,-1.637266 -0.75429,-3.427097 0,-3.38045 1.36363,-27.053026 1.71528,-29.777369 0.46425,-3.596531 3.67953,-4.038401 5.28603,-0.726449 l 0.87564,1.805201 0.1963,16.44 0.19631,16.44 h -3.38049 c -2.43318,0 -3.59187,-0.211373 -4.13478,-0.754286 z M 213.9911,36.943276 c -2.68458,-1.417946 -2.6469,-1.517728 2.28934,-6.06231 5.68263,-5.231736 5.64137,-5.208253 7.94023,-4.5195 l 1.85933,0.55707 v 1.693015 c 0,1.752644 -1.23315,3.647091 -4.86353,7.471657 L 219.47294,37.92 217.61647,37.89878 c -1.02106,-0.01167 -2.65247,-0.441648 -3.62537,-0.95551 z"
    id="one-dot" />
  <path style="stroke-width:0.48"
    d="M 653.28,95.546342 C 642.67994,94.426834 630.06549,89.379749 619.94749,82.209893 L 617.76,80.659786 V 78.310253 75.96072 l 1.99237,-2.689224 1.99238,-2.689224 2.20762,1.925347 C 638.31837,85.03668 647.36845,89.00821 661.44,88.95865 l 6.96,-0.02453 3.68421,-0.998276 c 9.12506,-2.472532 16.69379,-6.88512 21.03041,-12.260784 4.45581,-5.523398 8.37505,-5.784638 11.07579,-0.738259 l 0.48877,0.913272 -1.40265,2.034955 C 694.9554,89.957309 673.18311,97.648378 653.28,95.546342 Z m -24.53064,-28.3903 C 626.9395,66.47617 626.4,64.827677 626.4,59.977416 V 55.68 l 1.0264,-1.026403 1.0264,-1.026403 4.8536,0.306144 c 22.25677,1.40386 40.75872,1.335388 53.5736,-0.198264 l 4.56,-0.545727 1.92,0.645327 1.92,0.645326 0.43769,2.76 c 0.26359,1.662139 0.26359,3.853872 0,5.509968 l -0.43769,2.749968 -1.2,0.606691 -1.2,0.606691 -22.8,-0.302376 c -20.81937,-0.27611 -29.75825,-0.0409 -38.4,1.010511 -0.924,0.112421 -2.24279,-0.007 -2.93064,-0.265411 z M 694.31708,46.006589 C 684.03357,36.917879 674.56629,32.314278 663.65035,31.094451 l -5.01204,-0.56008 -4.86902,0.571266 c -11.11936,1.304599 -21.56915,6.479167 -26.97449,13.357328 -4.21777,5.367011 -8.31431,5.59084 -10.98521,0.600216 l -0.48877,-0.913272 1.40265,-2.034954 c 15.00205,-21.764936 55.73451,-23.878985 83.32904,-4.324847 l 2.18749,1.550109 v 2.373125 2.373125 l -1.73997,2.316767 c -0.95698,1.274221 -1.87629,2.469281 -2.04292,2.655689 -0.16663,0.186413 -2.02965,-1.18714 -4.14003,-3.052334 z"
    id="hamburger" />
  <path style="stroke-width:0.48"
    d="m 896.9867,102.38269 c -0.1199,-0.21048 -1.57645,-3.798154 -3.23676,-7.972608 -3.1735,-7.978964 -6.54051,-14.354189 -9.6506,-18.272784 -2.29143,-2.887114 -2.29528,-2.773656 0.15522,-4.575773 3.87525,-2.849885 3.8874,-2.838749 10.65644,9.76512 2.54226,4.733654 4.7038,8.688163 4.80344,8.787792 0.0996,0.09963 1.39161,-2.045357 2.87108,-4.766645 9.01541,-16.582757 9.32163,-16.871386 13.92784,-13.127304 l 1.39337,1.13257 -2.26297,3.010416 c -4.1789,5.559163 -6.99455,10.900838 -11.10965,21.076526 l -2.0382,5.04 -2.6456,0.14269 c -1.45508,0.0785 -2.74371,-0.0295 -2.86361,-0.24 z M 867.51138,64.340597 C 865.84009,63.629054 865.44,62.286826 865.44,57.391555 V 52.8 l 1.02127,-1.021267 1.02126,-1.021267 4.37874,0.301814 c 20.88677,1.439664 38.52785,1.452845 51.56106,0.0385 10.6241,-1.152902 11.19541,-0.816451 11.01903,6.489091 l -0.12136,5.026891 -1.2,0.618788 -1.2,0.618787 -22.32,-0.306831 c -20.59457,-0.283113 -27.77163,-0.09391 -38.88,1.024964 -1.188,0.119659 -2.63188,0.01666 -3.20862,-0.228888 z M 936.24,39.99688 c -20.9391,-19.284318 -53.76743,-21.162639 -67.03526,-3.835521 -5.29782,6.918681 -8.2316,7.611223 -11.79951,2.785366 l -1.06061,-1.434556 2.12538,-2.887123 c 6.7009,-9.102533 20.5133,-15.467233 36.66563,-16.895385 l 6.23552,-0.55133 5.84706,0.563933 c 10.49093,1.011822 14.80591,2.460042 26.25653,8.812379 11.69286,6.486721 12.5473,8.190554 7.18618,14.329996 l -1.54092,1.76464 z"
    id="pizza" />
  <path style="stroke-width:0.48"
    d="m 509.79595,101.87926 c -3.96986,-2.02653 -3.70142,-2.569924 8.48714,-17.180092 11.88673,-14.248368 11.70632,-14.131771 17.4106,-11.252256 3.30215,1.666915 3.39481,1.87391 1.37342,3.067973 -4.21945,2.492491 -10.46773,9.665299 -17.50581,20.096045 l -2.8413,4.21093 -1.95155,0.94907 c -2.38775,1.1612 -2.8886,1.17211 -4.9725,0.10833 z m 69.70199,0.11533 c -0.56962,-0.39898 -2.92095,-3.368976 -5.22518,-6.6 -6.892,-9.664051 -10.02475,-13.485537 -14.13512,-17.242761 l -3.90496,-3.569463 3.42384,-1.578153 c 5.49955,-2.534904 4.81271,-3.044722 18.86348,14.001768 10.18196,12.352829 9.61867,11.255352 7.08,13.794019 l -1.92,1.92 h -1.5732 c -0.86526,0 -2.03925,-0.32643 -2.60886,-0.72541 z M 494.88,101.9248 c -3.61068,-1.45465 -3.24891,-3.4252 1.76994,-9.640653 9.29566,-11.511974 16.18385,-19.399709 17.5651,-20.113977 l 1.46083,-0.755424 1.96206,0.574185 c 1.07914,0.315802 2.88641,1.108306 4.01617,1.76112 l 2.05409,1.186939 -2.77409,2.047028 c -4.16045,3.070022 -8.98018,8.507184 -14.13598,15.946876 -6.12984,8.845206 -8.27293,10.462466 -11.91812,8.993906 z m 11.60402,-35.447003 -1.04402,-1.327263 0.007,-4.615267 c 0.0108,-6.787373 0.0756,-6.827654 10.07265,-6.266117 3.828,0.215021 9.93,0.534552 13.56,0.710074 l 6.6,0.319123 v 3.970824 c 0,2.183957 -0.135,4.645829 -0.3,5.470829 l -0.3,1.5 -3.42,0.01402 c -3.10617,0.01272 -6.73707,0.237077 -19.77598,1.222013 l -4.35597,0.32904 -1.04403,-1.327258 z M 547.8,66.368539 545.76,66.1848 v -5.400754 -5.400758 l 9,-0.619219 c 4.95,-0.340575 10.88775,-0.73213 13.19501,-0.87012 l 4.19501,-0.250896 1.20499,0.789537 1.20499,0.789543 v 5.001715 5.001715 L 573.4932,65.972784 572.4264,66.72 561.1332,66.63614 C 554.92194,66.59002 548.922,66.469599 547.8,66.368539 Z m -9.95667,-21.77558 c -19.5181,-1.315937 -29.21328,-5.339626 -29.89226,-12.405868 -0.65282,-6.794033 4.26674,-11.138609 15.3562,-13.561422 l 4.93273,-1.077697 20.16,-0.01399 20.16,-0.01399 1.52551,0.643947 c 1.75409,0.740437 2.2719,1.690297 1.6029,2.940336 -0.91701,1.713449 -3.0562,1.935593 -18.68004,1.939822 -26.71284,0.0072 -34.08158,1.519288 -35.34066,7.251863 -1.27641,5.811442 10.23935,8.575168 35.77229,8.585174 15.40297,0.006 18.72,0.661246 18.72,3.697747 v 1.150098 l -1.66458,0.695508 -1.66458,0.695507 -12.61542,-0.06946 c -6.93848,-0.0382 -15.20592,-0.244114 -18.37209,-0.457582 z"
    id="c-squid" />
  <path style="stroke-width:0.48"
    d="m 772.67336,98.76 c -1.75672,-1.333992 -1.95316,-3.140198 -2.1665,-19.92 L 770.29783,62.4 h 3.3768 c 5.54672,0 5.33864,-0.969893 4.15931,19.387099 -1.05055,18.134007 -1.53468,19.726301 -5.16058,16.972901 z m 11.68534,-0.739939 -1.60503,-1.339939 -0.41436,-9.100061 C 782.11141,82.575029 781.70784,76.351114 781.44248,73.749144 780.3563,63.098789 780.62564,62.4 785.8169,62.4 h 3.34833 l -0.14262,17.24196 -0.14261,17.241955 -1.16367,1.238045 c -1.43786,1.529755 -1.40185,1.53085 -3.35763,-0.101899 z M 820.56,90.739445 c -1.40347,-0.584343 -2.94676,-2.40936 -7.93155,-9.379445 -6.65129,-9.300312 -9.22059,-12.360504 -12.96168,-15.438187 l -3.38629,-2.785791 0.85976,-0.660393 c 1.66253,-1.277007 4.71752,-2.454658 6.39478,-2.465088 l 1.69503,-0.01056 2.69125,2.76 c 11.29194,11.580413 20.05571,23.827723 18.34105,25.631505 -2.28688,2.405736 -3.93432,3.084072 -5.70235,2.34794 z m -85.44,-0.601791 c -3.08169,-1.08406 -3.54055,-3.174091 -1.33757,-6.092347 3.09989,-4.106381 15.37362,-18.762504 17.82531,-21.285307 l 2.68221,-2.76 1.69502,3.79e-4 c 0.93227,2.07e-4 3.09903,0.669759 4.81503,1.48789 l 3.12,1.48751 -1.18784,0.792111 c -5.38832,3.593193 -9.45163,8.09147 -16.71658,18.506059 l -4.65558,6.673944 -1.92,0.87551 c -2.18337,0.995611 -2.34886,1.00765 -4.32,0.314251 z M 744.67186,56.7906 C 743.47978,55.908965 743.04,54.080218 743.04,50.004734 v -4.298381 l 0.89376,-1.103747 0.89376,-1.103747 11.46624,0.576504 c 13.61065,0.68432 34.11502,0.723694 40.50624,0.07778 15.79297,-1.596076 16.25979,-1.36706 15.52612,7.616872 l -0.28828,3.530011 -1.73238,0.723835 -1.73237,0.723831 -18.00654,-0.549706 c -12.64459,-0.386011 -20.57936,-0.404299 -26.64655,-0.06141 -4.752,0.268565 -10.908,0.613473 -13.68,0.766464 -2.772,0.152985 -5.27766,0.102389 -5.56814,-0.112445 z m 18.37797,-19.256833 -1.28977,-1.346233 1.55997,-1.697137 1.55997,-1.697138 7.92,-0.32913 c 4.356,-0.181022 11.16,-0.644858 15.12,-1.030748 9.18507,-0.895055 8.72059,-0.916426 10.10182,0.464801 L 799.2,33.076364 V 35.978182 38.88 H 781.7698 764.33961 Z M 789.84,28.48871 C 789.048,28.402 782.93304,28.005235 776.25121,27.60701 762.77856,26.804066 762.24,26.673094 762.24,24.199644 v -1.68658 l 2.04,-0.92599 2.04,-0.92599 16.19086,-0.01054 16.19085,-0.01054 0.30835,1.228566 c 1.44592,5.760987 -0.98539,7.516221 -9.17006,6.620144 z"
    id="book-table" />
  <path style="stroke-width:0.48"
    d="M 252.48,92.006938 V 88.49388 l 5.79367,-6.926942 c 3.18651,-3.809813 8.18913,-9.59713 11.11692,-12.860693 l 5.32325,-5.933755 1.96308,0.240072 c 1.0797,0.132038 3.33574,0.863035 5.01343,1.624435 l 3.05035,1.384363 -3.71123,3.107458 c -5.81811,4.871577 -13.75322,15.039268 -19.00137,24.347486 l -1.1481,2.036304 -4.2,0.0037 -4.2,0.0037 z m 83.66268,-1.43964 C 330.16607,80.60015 324.43903,73.503187 319.02902,69.36 c -3.84601,-2.945424 -2.22538,-5.512406 4.00803,-6.34848 l 1.86935,-0.250733 2.414,2.339607 c 1.32769,1.286784 6.41576,7.08838 11.3068,12.89244 L 347.52,88.545667 V 92.032834 95.52 h -4.20376 -4.20377 z M 297.80452,78.714624 c -3.11894,-1.990963 -3.28762,-4.453027 -0.50707,-7.401264 2.53804,-2.69111 8.45521,-0.517459 8.4607,3.108005 0.004,2.708472 -5.65279,5.761987 -7.95363,4.293259 z M 266.46845,59.588448 265.44,58.56 V 53.594395 48.62879 l 0.96404,-0.872447 0.96404,-0.872445 11.39596,0.564513 c 14.55664,0.721082 33.82121,0.710901 40.91596,-0.02163 7.71851,-0.796927 13.10218,-0.784702 14.08623,0.03199 l 0.79377,0.658774 v 5.245719 5.245718 l -1.79345,0.749357 -1.79346,0.749352 -18.00654,-0.549706 c -17.39656,-0.531081 -20.88565,-0.466886 -40.3781,0.742901 l -5.09156,0.316003 z m 14.55992,-25.193424 c -3.14306,-1.423721 -3.42085,-4.756736 -0.64724,-7.765749 L 282.36227,24.48 h 1.53519 c 2.50546,0 5.45666,4.262568 4.79006,6.918524 -0.705,2.808955 -4.65854,4.3557 -7.65915,2.9965 z m 16.24943,-0.03248 c -3.23637,-1.455143 -3.47042,-4.593919 -0.57667,-7.73327 2.98034,-3.23328 6.33974,-2.265849 8.07021,2.324036 1.47804,3.920327 -3.2363,7.323389 -7.49354,5.409234 z m 17.83056,0.0074 c -3.14073,-1.368415 -3.42185,-4.730559 -0.64723,-7.740672 L 316.44227,24.48 h 1.59444 1.59444 l 1.24379,1.6307 c 4.0159,5.265114 0.13126,10.828932 -5.76658,8.259247 z"
    id="three-dots" />
  <path style="stroke-width:0.48"
    d="m 369.12,101.8432 v -3.276794 l 6.78591,-8.123203 c 3.73225,-4.467763 7.89025,-9.323045 9.24,-10.789521 7.77308,-8.445279 6.88376,-8.043533 12.54504,-5.66713 4.35845,1.829515 4.35653,1.474368 0.0276,5.086934 -5.65384,4.718228 -12.50855,13.48944 -18.62672,23.834534 l -1.3082,2.21198 H 373.45182 369.12 Z m 47.08593,0.2768 c -4.32069,-11.279333 -7.99717,-18.458414 -11.9178,-23.271883 l -2.19932,-2.700173 1.8756,-1.589885 c 3.98856,-3.380981 4.49914,-2.994595 10.42502,7.889285 2.59018,4.757318 4.97411,9.01164 5.29761,9.454046 l 0.58817,0.80438 2.25257,-4.232885 c 8.78823,-16.514333 9.32155,-17.089608 13.33668,-14.385663 l 2.47575,1.667266 3.41635,-1.637246 c 6.05737,-2.902916 5.48425,-3.300831 19.88545,13.806393 L 470.4,98.32727 v 3.39637 3.39636 h -4.27439 -4.27439 l -1.31526,-2.28 C 454.50582,92.386819 446.29907,82.154141 440.57664,77.953493 l -2.35952,-1.732051 -0.76546,0.63527 C 434.29208,79.478938 423.36,100.82412 423.36,104.37108 V 105.12 h -3.00244 -3.00245 z M 387.58334,69.15432 c -1.89931,-0.791352 -2.33697,-1.908533 -2.5367,-6.475166 l -0.19338,-4.42153 1.16939,-1.359494 1.16939,-1.359495 10.04398,0.552259 c 5.52419,0.303744 11.82598,0.551554 14.00398,0.550685 L 415.2,56.64 v 5.76 5.76 h -5.45029 c -4.94183,0 -15.26133,0.624797 -19.50971,1.181218 -0.924,0.121017 -2.1195,0.03691 -2.65666,-0.186898 z m 43.56155,-0.873 -5.8951,-0.151109 0.1351,-5.625105 L 425.52,56.88 l 4.32,-0.109541 c 2.376,-0.06025 7.992,-0.447408 12.48,-0.860357 11.38211,-1.047283 12.219,-0.664862 12.23292,5.589898 0.0173,7.787635 1.3044,7.414771 -23.40803,6.78132 z M 390.80308,46.176647 C 388.22536,43.477833 380.12475,34.158876 374.92941,27.915552 L 369.6,21.511104 V 18.195552 14.88 h 4.2734 4.27341 l 2.87788,4.68 c 6.18437,10.057023 12.39773,17.711244 17.86218,22.004353 3.57094,2.805493 3.61076,2.597093 -0.84687,4.432074 -4.55125,1.873518 -5.59478,1.899505 -7.23692,0.18022 z m 51.04369,-0.423958 -3.35323,-1.720095 1.67323,-1.250968 C 446.23635,38.243784 452.71518,30.532052 458.86934,20.52 l 3.46677,-5.64 h 4.27194 4.27195 v 3.371263 3.371263 l -10.37654,12.245651 c -12.7851,15.08805 -12.61848,14.981913 -18.65669,11.884512 z M 406.83429,44.845714 406.08,44.091429 V 38.81766 c 0,-11.565341 2.10265,-17.895772 6.8466,-20.61298 L 414.96,17.04 l 4.08,0.02206 4.08,0.02206 1.92,1.011233 c 2.51197,1.323014 3.79471,2.746552 5.1098,5.670639 l 1.07669,2.39402 0.19604,7.68 c 0.22623,8.86301 -0.11026,10.836726 -1.95827,11.486637 l -1.27519,0.44846 -0.90945,-0.823038 -0.90944,-0.823037 -0.22834,-8.264511 L 425.91349,27.6 424.91881,25.35408 C 423.74385,22.701091 421.96696,21.6 418.86067,21.6 c -4.80607,0 -6.34906,3.250685 -7.20187,15.172448 l -0.56652,7.919702 -0.70614,0.446575 c -1.07767,0.68154 -2.71214,0.546704 -3.55185,-0.293011 z"
    id="carrot" />
</svg>